<?xml version="1.0" encoding="UTF-8"?><svg id="a" xmlns="http://www.w3.org/2000/svg" viewBox="0 0 329.16 55.81"><defs><style>.b{fill:#000;}.c{fill:#cd973a;}</style></defs><path class="b" d="M63.28,33.56V3.68c0-1.01,.35-1.87,1.06-2.59,.71-.72,1.59-1.08,2.65-1.08h7.24c.98,0,1.83,.36,2.55,1.08,.72,.72,1.08,1.59,1.08,2.59v29.96c0,3.79,.83,6.62,2.5,8.48,1.66,1.86,4.24,2.79,7.72,2.79h6.19c3.48,0,6.06-.93,7.72-2.79,1.66-1.86,2.5-4.68,2.5-8.48V3.68c0-1.01,.35-1.87,1.06-2.59,.71-.72,1.57-1.08,2.57-1.08h7.2c1.06,0,1.95,.36,2.67,1.08,.72,.72,1.08,1.59,1.08,2.59v29.88c0,7.07-2.08,12.55-6.23,16.43-4.16,3.88-10.22,5.82-18.19,5.82h-6.97c-8,0-14.07-1.94-18.21-5.82-4.14-3.88-6.21-9.36-6.21-16.43Z"/><path class="b" d="M129.39,51.87V3.68c0-1.01,.35-1.87,1.05-2.59s1.55-1.08,2.56-1.08h29.53c15.61,0,23.42,7.19,23.42,21.58s-7.81,21.58-23.42,21.58h-18.54v8.71c0,1.01-.35,1.86-1.06,2.57s-1.57,1.06-2.57,1.06h-7.28c-1.01,0-1.87-.35-2.59-1.06-.72-.71-1.08-1.57-1.08-2.57Zm14.59-19.66h14.13c4.33,0,7.63-.73,9.87-2.19,2.24-1.46,3.37-4.27,3.37-8.44s-1.12-6.98-3.37-8.44c-2.24-1.46-5.54-2.19-9.87-2.19h-14.13v21.25Z"/><path class="b" d="M193.06,51.95V3.68c0-1.01,.36-1.87,1.08-2.59,.72-.72,1.59-1.08,2.59-1.08h7.2c1.06,0,1.94,.36,2.65,1.08s1.06,1.59,1.06,2.59V51.87c0,1.01-.37,1.86-1.1,2.57-.73,.71-1.61,1.06-2.61,1.06h-7.2c-1.01,0-1.87-.34-2.59-1.03-.72-.68-1.08-1.53-1.08-2.53Z"/><path class="b" d="M214,1.86c0-1.24,.67-1.86,2.01-1.86h7.35c2.92,0,5.16,1.23,6.73,3.68l12.54,19.32,12.5-19.32c1.6-2.45,3.84-3.68,6.73-3.68h7.39c1.32,0,1.97,.62,1.97,1.86,0,.57-.21,1.17-.62,1.82l-20.71,32.01v16.26c0,1.01-.35,1.85-1.06,2.53-.71,.68-1.57,1.03-2.57,1.03h-7.28c-1.01,0-1.87-.34-2.59-1.03s-1.08-1.53-1.08-2.53v-16.26L214.66,3.68c-.44-.64-.66-1.25-.66-1.82Z"/><path class="b" d="M269.55,51.95l9.72-36.85c2.63-10.04,11.2-15.07,25.7-15.1h20.86c.95,0,1.75,.36,2.38,1.08,.63,.72,.95,1.56,.95,2.52V51.95c0,1.01-.36,1.85-1.08,2.53-.72,.68-1.59,1.03-2.59,1.03h-7.28c-1.06,0-1.93-.34-2.61-1.03s-1.03-1.55-1.03-2.61v-9.75h-27.52l-2.59,9.75c-.26,1.06-.84,1.93-1.74,2.61-.9,.68-1.86,1.03-2.86,1.03h-7.63c-1.01,0-1.73-.29-2.17-.87s-.65-1.09-.64-1.53,.06-.83,.14-1.16Zm20.36-20.79h24.66V10.95h-11.03c-2.48,0-4.64,.7-6.48,2.11s-3.09,3.3-3.74,5.67l-3.41,12.43Z"/><g><path class="c" d="M57.01,51.87l-7.04-11.19c-1.7-2.63-3.21-4.64-4.53-6.02-1.32-1.38-2.75-2.35-4.3-2.92,9.73-1.91,14.59-6.62,14.59-14.13,0-5.39-1.89-9.68-5.67-12.85-3.78-3.17-8.63-4.76-14.53-4.76H3.6C2.59,0,1.74,.36,1.05,1.08S0,2.67,0,3.68V7.71c0,1.79,1.45,3.25,3.25,3.25H31.08c2.66,0,5,.53,7.03,1.59,2.03,1.06,3.04,2.75,3.04,5.07s-1.01,4.01-3.04,5.07c-2.03,1.06-4.37,1.59-7.03,1.59h-12.33c-1.79,0-3.23,1.45-3.23,3.23v4.31c0,1.88,1.53,3.41,3.41,3.41h5.11c3.84,0,7.12,2.12,9.83,6.35l6.58,10.3c.62,1.01,1.52,1.86,2.69,2.57,1.17,.71,2.25,1.06,3.23,1.06h9.29c1.32,0,1.97-.56,1.97-1.66,0-.59-.21-1.25-.62-1.97Z"/><circle class="c" cx="5.52" cy="29.72" r="5.52"/></g></svg>